<svg id="eWun68AkQp11" xmlns="http://www.w3.org/2000/svg" xmlns:xlink="http://www.w3.org/1999/xlink" viewBox="0 0 300 300" shape-rendering="geometricPrecision" text-rendering="geometricPrecision"><line x1="-15" y1="0" x2="125" y2="0" transform="matrix(.559193 0.829038-7.461338 5.032736 37.387894 162.435564)" fill="none" stroke="#3f5787" stroke-width="3" stroke-miterlimit="9"/><line x1="-15" y1="0" x2="125" y2="0" transform="matrix(.559193 0.829038-7.461338 5.032736 107.770828 162.818485)" fill="none" stroke="#3f5787" stroke-width="3" stroke-linejoin="bevel"/><line x1="-15" y1="0" x2="125" y2="0" transform="matrix(.559193 0.829038-7.461338 5.032736 177.387908 162.435554)" fill="none" stroke="#3f5787" stroke-width="3"/><line x1="-27.439746" y1="0" x2="112.560254" y2="0" transform="matrix(.559193-.829038 7.461338 5.032736 44.012162 127.334407)" fill="none" stroke="#3f5787" stroke-width="3" stroke-miterlimit="9"/><line x1="-27.439746" y1="0" x2="112.560254" y2="0" transform="matrix(.559193-.829038 7.461338 5.032736 114.344111 127.9232)" fill="none" stroke="#3f5787" stroke-width="3"/><rect width="6.864956" height="5.130021" rx="0" ry="0" transform="matrix(1.429171 0 0 1.968803 21.568551 144.992497)" fill="#3f5787"/><rect width="6.864956" height="5.130021" rx="0" ry="0" transform="matrix(1.115574 0 0 1.968803 91.817236 145.032987)" fill="#3f5787"/><rect width="6.864956" height="5.130021" rx="0" ry="0" transform="matrix(1.115574 0 0 1.968803 161.420817 144.949993)" fill="#3f5787"/><rect width="10.413112" height="10.268121" rx="0" ry="0" transform="matrix(1.43947 0 0 1.014384 236.11103 263.230225)" fill="#3f5787"/><rect width="10.413112" height="10.268121" rx="0" ry="0" transform="matrix(1.43947 0 0 1.014384 166.010638 263.287685)" fill="#3f5787"/><rect width="10.413112" height="10.268121" rx="0" ry="0" transform="matrix(1.43947 0 0 1.014384 95.646419 263.230225)" fill="#3f5787"/><rect width="5.022548" height="10.268121" rx="0" ry="0" transform="matrix(1.393715 0 0 0.973888 169.000015 23.869528)" fill="#3f5787"/><path d="M158.635988,33.93474q69.651028,0,69.651028,58.03263q0,58.628662-77.727997,58.075127" transform="matrix(1.272991 0 0 1-29.086821 2.42167)" fill="none" stroke="#3f5787" stroke-width="25"/><polygon points="3.573608,-11.808407 19.033818,5.531216 -14.020053,5.531216 -1.903462,-11.808407" transform="matrix(-1 0 0-1 114.680237 32.017953)" fill="#3f5787"/><polygon points="35.044456,-11.808407 23.221155,5.531216 10.434192,4.651642 -1.903462,-11.808407" transform="matrix(-1 0 0-1 191.56975 29.400744)" fill="#3f5787"/><polygon points="9.260816,-6.907608 8.191301,19.084871 -9.454908,-6.907608 5.358105,-6.965068" transform="matrix(-1 0 0-1 259.291693 266.738434)" fill="#3f5787"/><polygon points="9.260816,-6.907608 8.191301,19.084871 -9.454908,-6.907608 5.358105,-6.965068" transform="matrix(-1 0 0-1 189.326859 266.738434)" fill="#3f5787"/><polygon points="9.260816,-6.907608 8.191301,19.084871 -9.454908,-6.907608 5.358105,-6.965068" transform="matrix(-1 0 0-1 119.245382 266.680974)" fill="#3f5787"/><polygon points="-5.361093,-12.179095 0.904024,-2.871349 -6.622199,8.239526 -9.97578,-4.386737" transform="matrix(-1.164622 0 0-1.073288 13.122428 146.579996)" fill="#3f5787"/><polygon points="-5.361093,-12.179095 0.904024,-2.871349 -6.622199,8.239526 -9.97578,-4.386737" transform="matrix(-1.164622 0 0-1.073288 83.554202 147.181526)" fill="#3f5787"/><polygon points="5.256652,-10.530667 5.256656,3.034932 -5.174623,3.507732 -11.566153,-10.530667" transform="matrix(.723358 0 0-1.234933 166.31656 144.57975)" fill="#3f5787"/></svg>
